<svg width="512" height="512" viewBox="0 0 512 512" fill="none" xmlns="http://www.w3.org/2000/svg">
  <defs>
    <linearGradient id="stroke" x1="140" y1="120" x2="380" y2="400" gradientUnits="userSpaceOnUse">
      <stop offset="0%" stop-color="#7aa2f7"/>
      <stop offset="100%" stop-color="#bb9af7"/>
    </linearGradient>
  </defs>

  <!-- light tile (matches the app's "QR over white" look) -->
  <rect width="512" height="512" rx="112" fill="#ffffff"/>

  <g>
    <!-- tracker tag body -->
    <circle cx="256" cy="268" r="150" stroke="url(#stroke)" stroke-width="10"/>

    <!-- top attachment ring -->
    <circle cx="256" cy="118" r="17" fill="#ffffff" stroke="url(#stroke)" stroke-width="10"/>

    <!-- simplified QR: three finder patterns + a few larger data modules -->
    <g fill="url(#stroke)">
      <rect x="170.40" y="182.40" width="51.36" height="51.36" rx="14" fill="none" stroke="url(#stroke)" stroke-width="10"/>
      <rect x="183.24" y="195.24" width="25.68" height="25.68" rx="8"/>
      <rect x="290.24" y="182.40" width="51.36" height="51.36" rx="14" fill="none" stroke="url(#stroke)" stroke-width="10"/>
      <rect x="303.08" y="195.24" width="25.68" height="25.68" rx="8"/>
      <rect x="170.40" y="302.24" width="51.36" height="51.36" rx="14" fill="none" stroke="url(#stroke)" stroke-width="10"/>
      <rect x="183.24" y="315.08" width="25.68" height="25.68" rx="8"/>

      <rect x="252.23" y="252.23" width="25.68" height="25.68" rx="7"/>
      <rect x="320.71" y="252.23" width="25.68" height="25.68" rx="7"/>
      <rect x="286.47" y="286.47" width="25.68" height="25.68" rx="7"/>
      <rect x="252.23" y="320.71" width="25.68" height="25.68" rx="7"/>
      <rect x="320.71" y="320.71" width="25.68" height="25.68" rx="7"/>
    </g>
  </g>
</svg>
